<mxfile host="app.diagrams.net" agent="Mozilla/5.0 (Windows NT 10.0; Win64; x64) AppleWebKit/537.36 (KHTML, like Gecko) Chrome/128.0.0.0 YaBrowser/24.10.0.0 Safari/537.36" version="24.8.6">
  <diagram name="Страница — 1" id="nvs1EwQni5qlHn5SZSIE">
    <mxGraphModel dx="1914" dy="1032" grid="1" gridSize="10" guides="1" tooltips="1" connect="1" arrows="1" fold="1" page="1" pageScale="1" pageWidth="827" pageHeight="1169" math="0" shadow="0">
      <root>
        <mxCell id="0" />
        <mxCell id="1" parent="0" />
        <mxCell id="F7gm7PV2ilSt5lfnAaJo-4" value="Посетитель" style="swimlane;whiteSpace=wrap;html=1;" parent="1" vertex="1">
          <mxGeometry x="110" y="180" width="130" height="100" as="geometry" />
        </mxCell>
        <mxCell id="F7gm7PV2ilSt5lfnAaJo-6" value="ФИО" style="text;html=1;align=center;verticalAlign=middle;resizable=0;points=[];autosize=1;strokeColor=none;fillColor=none;" parent="F7gm7PV2ilSt5lfnAaJo-4" vertex="1">
          <mxGeometry x="35" y="58" width="50" height="30" as="geometry" />
        </mxCell>
        <mxCell id="F7gm7PV2ilSt5lfnAaJo-5" value="*id посетителя" style="text;html=1;align=center;verticalAlign=middle;resizable=0;points=[];autosize=1;strokeColor=none;fillColor=none;" parent="1" vertex="1">
          <mxGeometry x="120" y="208" width="100" height="30" as="geometry" />
        </mxCell>
        <mxCell id="F7gm7PV2ilSt5lfnAaJo-7" value="Администратор" style="swimlane;whiteSpace=wrap;html=1;" parent="1" vertex="1">
          <mxGeometry x="690" y="160" width="150" height="100" as="geometry" />
        </mxCell>
        <mxCell id="F7gm7PV2ilSt5lfnAaJo-9" value="*id администратора" style="text;html=1;align=center;verticalAlign=middle;resizable=0;points=[];autosize=1;strokeColor=none;fillColor=none;" parent="F7gm7PV2ilSt5lfnAaJo-7" vertex="1">
          <mxGeometry x="10" y="25" width="130" height="30" as="geometry" />
        </mxCell>
        <mxCell id="F7gm7PV2ilSt5lfnAaJo-10" value="Должность" style="text;html=1;align=center;verticalAlign=middle;resizable=0;points=[];autosize=1;strokeColor=none;fillColor=none;" parent="F7gm7PV2ilSt5lfnAaJo-7" vertex="1">
          <mxGeometry x="35" y="60" width="80" height="30" as="geometry" />
        </mxCell>
        <mxCell id="F7gm7PV2ilSt5lfnAaJo-39" value="" style="fontSize=12;html=1;endArrow=ERmany;rounded=0;entryX=0.463;entryY=0.002;entryDx=0;entryDy=0;entryPerimeter=0;" parent="F7gm7PV2ilSt5lfnAaJo-7" target="F7gm7PV2ilSt5lfnAaJo-15" edge="1">
          <mxGeometry width="100" height="100" relative="1" as="geometry">
            <mxPoint x="70" y="100" as="sourcePoint" />
            <mxPoint x="70" y="238" as="targetPoint" />
          </mxGeometry>
        </mxCell>
        <mxCell id="F7gm7PV2ilSt5lfnAaJo-8" value="Мероприятие" style="swimlane;whiteSpace=wrap;html=1;" parent="1" vertex="1">
          <mxGeometry x="440" y="180" width="150" height="140" as="geometry" />
        </mxCell>
        <mxCell id="F7gm7PV2ilSt5lfnAaJo-11" value="*Номер мероприятия" style="text;html=1;align=center;verticalAlign=middle;resizable=0;points=[];autosize=1;strokeColor=none;fillColor=none;" parent="F7gm7PV2ilSt5lfnAaJo-8" vertex="1">
          <mxGeometry y="28" width="140" height="30" as="geometry" />
        </mxCell>
        <mxCell id="F7gm7PV2ilSt5lfnAaJo-12" value="Название" style="text;html=1;align=center;verticalAlign=middle;resizable=0;points=[];autosize=1;strokeColor=none;fillColor=none;" parent="F7gm7PV2ilSt5lfnAaJo-8" vertex="1">
          <mxGeometry x="30" y="58" width="80" height="30" as="geometry" />
        </mxCell>
        <mxCell id="F7gm7PV2ilSt5lfnAaJo-14" value="Дата проведения" style="text;html=1;align=center;verticalAlign=middle;resizable=0;points=[];autosize=1;strokeColor=none;fillColor=none;" parent="F7gm7PV2ilSt5lfnAaJo-8" vertex="1">
          <mxGeometry x="10" y="88" width="120" height="30" as="geometry" />
        </mxCell>
        <mxCell id="F7gm7PV2ilSt5lfnAaJo-15" value="Экспонат&amp;nbsp;" style="swimlane;whiteSpace=wrap;html=1;" parent="1" vertex="1">
          <mxGeometry x="690" y="400" width="150" height="130" as="geometry" />
        </mxCell>
        <mxCell id="F7gm7PV2ilSt5lfnAaJo-17" value="*Id экспоната" style="text;html=1;align=center;verticalAlign=middle;resizable=0;points=[];autosize=1;strokeColor=none;fillColor=none;" parent="F7gm7PV2ilSt5lfnAaJo-15" vertex="1">
          <mxGeometry x="25" y="28" width="100" height="30" as="geometry" />
        </mxCell>
        <mxCell id="F7gm7PV2ilSt5lfnAaJo-18" value="Название" style="text;html=1;align=center;verticalAlign=middle;resizable=0;points=[];autosize=1;strokeColor=none;fillColor=none;" parent="F7gm7PV2ilSt5lfnAaJo-15" vertex="1">
          <mxGeometry x="35" y="58" width="80" height="30" as="geometry" />
        </mxCell>
        <mxCell id="F7gm7PV2ilSt5lfnAaJo-21" value="Описание" style="text;html=1;align=center;verticalAlign=middle;resizable=0;points=[];autosize=1;strokeColor=none;fillColor=none;" parent="F7gm7PV2ilSt5lfnAaJo-15" vertex="1">
          <mxGeometry x="35" y="88" width="80" height="30" as="geometry" />
        </mxCell>
        <mxCell id="F7gm7PV2ilSt5lfnAaJo-23" value="Профиль" style="swimlane;whiteSpace=wrap;html=1;" parent="1" vertex="1">
          <mxGeometry x="100" y="370" width="140" height="110" as="geometry" />
        </mxCell>
        <mxCell id="F7gm7PV2ilSt5lfnAaJo-24" value="*id профиля" style="text;html=1;align=center;verticalAlign=middle;resizable=0;points=[];autosize=1;strokeColor=none;fillColor=none;" parent="F7gm7PV2ilSt5lfnAaJo-23" vertex="1">
          <mxGeometry x="20" y="30" width="90" height="30" as="geometry" />
        </mxCell>
        <mxCell id="F7gm7PV2ilSt5lfnAaJo-25" value="id поситителя" style="text;html=1;align=center;verticalAlign=middle;resizable=0;points=[];autosize=1;strokeColor=none;fillColor=none;" parent="F7gm7PV2ilSt5lfnAaJo-23" vertex="1">
          <mxGeometry x="20" y="60" width="100" height="30" as="geometry" />
        </mxCell>
        <mxCell id="F7gm7PV2ilSt5lfnAaJo-37" value="" style="endArrow=none;html=1;rounded=0;exitX=0.432;exitY=0.002;exitDx=0;exitDy=0;exitPerimeter=0;" parent="F7gm7PV2ilSt5lfnAaJo-23" source="F7gm7PV2ilSt5lfnAaJo-23" edge="1">
          <mxGeometry relative="1" as="geometry">
            <mxPoint x="50" as="sourcePoint" />
            <mxPoint x="60" y="-90" as="targetPoint" />
          </mxGeometry>
        </mxCell>
        <mxCell id="F7gm7PV2ilSt5lfnAaJo-26" value="Отзыв" style="swimlane;whiteSpace=wrap;html=1;" parent="1" vertex="1">
          <mxGeometry x="450" y="410" width="150" height="140" as="geometry" />
        </mxCell>
        <mxCell id="F7gm7PV2ilSt5lfnAaJo-27" value="*Номер отзыва" style="text;html=1;align=center;verticalAlign=middle;resizable=0;points=[];autosize=1;strokeColor=none;fillColor=none;" parent="F7gm7PV2ilSt5lfnAaJo-26" vertex="1">
          <mxGeometry x="10" y="30" width="110" height="30" as="geometry" />
        </mxCell>
        <mxCell id="F7gm7PV2ilSt5lfnAaJo-28" value="Оценка&amp;nbsp;" style="text;html=1;align=center;verticalAlign=middle;resizable=0;points=[];autosize=1;strokeColor=none;fillColor=none;" parent="F7gm7PV2ilSt5lfnAaJo-26" vertex="1">
          <mxGeometry x="35" y="55" width="70" height="30" as="geometry" />
        </mxCell>
        <mxCell id="F7gm7PV2ilSt5lfnAaJo-29" value="Комментарий" style="text;html=1;align=center;verticalAlign=middle;resizable=0;points=[];autosize=1;strokeColor=none;fillColor=none;" parent="F7gm7PV2ilSt5lfnAaJo-26" vertex="1">
          <mxGeometry x="20" y="80" width="100" height="30" as="geometry" />
        </mxCell>
        <mxCell id="F7gm7PV2ilSt5lfnAaJo-30" value="id поситителя" style="text;html=1;align=center;verticalAlign=middle;resizable=0;points=[];autosize=1;strokeColor=none;fillColor=none;" parent="F7gm7PV2ilSt5lfnAaJo-26" vertex="1">
          <mxGeometry x="20" y="110" width="100" height="30" as="geometry" />
        </mxCell>
        <mxCell id="F7gm7PV2ilSt5lfnAaJo-31" value="Уведомление" style="swimlane;whiteSpace=wrap;html=1;" parent="1" vertex="1">
          <mxGeometry x="240" y="570" width="150" height="130" as="geometry" />
        </mxCell>
        <mxCell id="F7gm7PV2ilSt5lfnAaJo-32" value="*id уведомления" style="text;html=1;align=center;verticalAlign=middle;resizable=0;points=[];autosize=1;strokeColor=none;fillColor=none;" parent="F7gm7PV2ilSt5lfnAaJo-31" vertex="1">
          <mxGeometry x="20" y="20" width="110" height="30" as="geometry" />
        </mxCell>
        <mxCell id="F7gm7PV2ilSt5lfnAaJo-33" value="Содержание" style="text;html=1;align=center;verticalAlign=middle;resizable=0;points=[];autosize=1;strokeColor=none;fillColor=none;" parent="F7gm7PV2ilSt5lfnAaJo-31" vertex="1">
          <mxGeometry x="30" y="50" width="90" height="30" as="geometry" />
        </mxCell>
        <mxCell id="F7gm7PV2ilSt5lfnAaJo-34" value="id посесителя" style="text;html=1;align=center;verticalAlign=middle;resizable=0;points=[];autosize=1;strokeColor=none;fillColor=none;" parent="F7gm7PV2ilSt5lfnAaJo-31" vertex="1">
          <mxGeometry x="20" y="80" width="100" height="30" as="geometry" />
        </mxCell>
        <mxCell id="F7gm7PV2ilSt5lfnAaJo-35" value="" style="edgeStyle=entityRelationEdgeStyle;fontSize=12;html=1;endArrow=ERoneToMany;rounded=0;entryX=-0.009;entryY=1.068;entryDx=0;entryDy=0;entryPerimeter=0;" parent="1" target="F7gm7PV2ilSt5lfnAaJo-11" edge="1">
          <mxGeometry width="100" height="100" relative="1" as="geometry">
            <mxPoint x="240" y="240" as="sourcePoint" />
            <mxPoint x="340" y="138" as="targetPoint" />
          </mxGeometry>
        </mxCell>
        <mxCell id="F7gm7PV2ilSt5lfnAaJo-40" value="" style="fontSize=12;html=1;endArrow=ERmany;rounded=0;exitX=0;exitY=0.5;exitDx=0;exitDy=0;" parent="1" source="F7gm7PV2ilSt5lfnAaJo-7" edge="1">
          <mxGeometry width="100" height="100" relative="1" as="geometry">
            <mxPoint x="770" y="270" as="sourcePoint" />
            <mxPoint x="590" y="270" as="targetPoint" />
            <Array as="points">
              <mxPoint x="660" y="210" />
              <mxPoint x="660" y="270" />
            </Array>
          </mxGeometry>
        </mxCell>
        <mxCell id="F7gm7PV2ilSt5lfnAaJo-41" value="" style="fontSize=12;html=1;endArrow=ERmany;rounded=0;entryX=1;entryY=0.5;entryDx=0;entryDy=0;" parent="1" target="F7gm7PV2ilSt5lfnAaJo-26" edge="1">
          <mxGeometry width="100" height="100" relative="1" as="geometry">
            <mxPoint x="690" y="480" as="sourcePoint" />
            <mxPoint x="769" y="410" as="targetPoint" />
            <Array as="points">
              <mxPoint x="640" y="480" />
            </Array>
          </mxGeometry>
        </mxCell>
        <mxCell id="F7gm7PV2ilSt5lfnAaJo-44" value="" style="fontSize=12;html=1;endArrow=ERmany;rounded=0;entryX=0.427;entryY=-0.012;entryDx=0;entryDy=0;entryPerimeter=0;" parent="1" edge="1">
          <mxGeometry width="100" height="100" relative="1" as="geometry">
            <mxPoint x="520" y="321.68" as="sourcePoint" />
            <mxPoint x="520.05" y="409.99999999999994" as="targetPoint" />
            <Array as="points">
              <mxPoint x="520" y="341.68" />
            </Array>
          </mxGeometry>
        </mxCell>
        <mxCell id="F7gm7PV2ilSt5lfnAaJo-45" value="" style="fontSize=12;html=1;endArrow=ERmany;rounded=0;" parent="1" edge="1">
          <mxGeometry width="100" height="100" relative="1" as="geometry">
            <mxPoint x="240" y="260" as="sourcePoint" />
            <mxPoint x="450" y="470" as="targetPoint" />
            <Array as="points">
              <mxPoint x="320" y="260" />
              <mxPoint x="430" y="470" />
            </Array>
          </mxGeometry>
        </mxCell>
        <mxCell id="F7gm7PV2ilSt5lfnAaJo-46" value="" style="fontSize=12;html=1;endArrow=ERmany;rounded=0;" parent="1" edge="1">
          <mxGeometry width="100" height="100" relative="1" as="geometry">
            <mxPoint x="250" y="260" as="sourcePoint" />
            <mxPoint x="320" y="570" as="targetPoint" />
            <Array as="points">
              <mxPoint x="320" y="260" />
              <mxPoint x="320" y="380" />
              <mxPoint x="320" y="500" />
            </Array>
          </mxGeometry>
        </mxCell>
        <mxCell id="F7gm7PV2ilSt5lfnAaJo-47" value="" style="fontSize=12;html=1;endArrow=ERmany;rounded=0;exitX=1;exitY=0.5;exitDx=0;exitDy=0;" parent="1" source="F7gm7PV2ilSt5lfnAaJo-7" edge="1">
          <mxGeometry width="100" height="100" relative="1" as="geometry">
            <mxPoint x="890" y="210" as="sourcePoint" />
            <mxPoint x="390" y="665" as="targetPoint" />
            <Array as="points">
              <mxPoint x="890" y="210" />
              <mxPoint x="890" y="665" />
              <mxPoint x="460" y="665" />
            </Array>
          </mxGeometry>
        </mxCell>
      </root>
    </mxGraphModel>
  </diagram>
</mxfile>
